<?xml version="1.0" encoding="UTF-8"?>
<svg width="200px" height="200px" viewBox="0 0 200 200" version="1.1" xmlns="http://www.w3.org/2000/svg" xmlns:xlink="http://www.w3.org/1999/xlink">
    <title>Illustration / Plan Details / Hospital/@blue</title>
    <defs>
        <polygon id="path-1" points="0 0 11 0 11 10.9999 0 10.9999"></polygon>
        <polygon id="path-3" points="0 0 4.9997 0 4.9997 5 0 5"></polygon>
        <path d="M9.437,0.24 C8.412,0.24 7.579,1.072 7.579,2.098 L7.579,2.098 L7.579,7.05 L2.628,7.05 C1.602,7.05 0.77,7.881 0.77,8.907 L0.77,8.907 L0.77,12.622 C0.77,13.647 1.602,14.478 2.628,14.478 L2.628,14.478 L7.579,14.478 L7.579,19.431 C7.579,20.456 8.412,21.288 9.437,21.288 L9.437,21.288 L13.15,21.288 C14.177,21.288 15.008,20.456 15.008,19.431 L15.008,19.431 L15.008,14.478 L19.961,14.478 C20.987,14.478 21.817,13.647 21.817,12.622 L21.817,12.622 L21.817,8.907 C21.817,7.881 20.987,7.05 19.961,7.05 L19.961,7.05 L15.008,7.049 L15.008,2.098 C15.008,1.072 14.177,0.24 13.15,0.24 L13.15,0.24 L9.437,0.24 Z" id="path-5"></path>
    </defs>
    <g id="Illustration-/-Plan-Details-/-Hospital/@blue" stroke="none" stroke-width="1" fill="none" fill-rule="evenodd">
        <rect id="Rectangle" x="0" y="0" width="200" height="200"></rect>
        <g id="Group-61" transform="translate(31.000300, 42.000000)">
            <polygon id="Fill-1" fill="#94BDE7" points="41.6937 108.537 98.3857 108.537 98.3857 2.9 41.6937 2.9"></polygon>
            <polygon id="Stroke-2" stroke="#192129" stroke-width="2.5" stroke-linecap="round" stroke-linejoin="round" points="41.6937 108.537 98.3857 108.537 98.3857 2.9 41.6937 2.9"></polygon>
            <polygon id="Fill-4" fill="#46639F" points="9.1687 108.536 49.7737 108.536 49.7737 28.247 9.1687 28.247"></polygon>
            <polygon id="Stroke-5" stroke="#192129" stroke-width="2.5" stroke-linecap="round" stroke-linejoin="round" points="9.1687 108.536 49.7737 108.536 49.7737 28.247 9.1687 28.247"></polygon>
            <path d="M32.3398,52.6014 L26.6048,52.6014 C25.6188,52.6014 24.8188,51.8014 24.8188,50.8164 L24.8188,40.5834 C24.8188,39.5984 25.6188,38.7984 26.6048,38.7984 L32.3398,38.7984 C33.3248,38.7984 34.1248,39.5984 34.1248,40.5834 L34.1248,50.8164 C34.1248,51.8014 33.3248,52.6014 32.3398,52.6014" id="Fill-6" fill="#FEFEFE"></path>
            <path d="M32.3398,52.6014 L26.6048,52.6014 C25.6188,52.6014 24.8188,51.8014 24.8188,50.8164 L24.8188,40.5834 C24.8188,39.5984 25.6188,38.7984 26.6048,38.7984 L32.3398,38.7984 C33.3248,38.7984 34.1248,39.5984 34.1248,40.5834 L34.1248,50.8164 C34.1248,51.8014 33.3248,52.6014 32.3398,52.6014 Z" id="Stroke-8" stroke="#192129" stroke-width="2.5" stroke-linecap="round" stroke-linejoin="round"></path>
            <path d="M32.3398,75.2938 L26.6048,75.2938 C25.6188,75.2938 24.8188,74.4938 24.8188,73.5088 L24.8188,63.2758 C24.8188,62.2908 25.6188,61.4908 26.6048,61.4908 L32.3398,61.4908 C33.3248,61.4908 34.1248,62.2908 34.1248,63.2758 L34.1248,73.5088 C34.1248,74.4938 33.3248,75.2938 32.3398,75.2938" id="Fill-10" fill="#FEFEFE"></path>
            <path d="M32.3398,75.2938 L26.6048,75.2938 C25.6188,75.2938 24.8188,74.4938 24.8188,73.5088 L24.8188,63.2758 C24.8188,62.2908 25.6188,61.4908 26.6048,61.4908 L32.3398,61.4908 C33.3248,61.4908 34.1248,62.2908 34.1248,63.2758 L34.1248,73.5088 C34.1248,74.4938 33.3248,75.2938 32.3398,75.2938 Z" id="Stroke-12" stroke="#192129" stroke-width="2.5" stroke-linecap="round" stroke-linejoin="round"></path>
            <path d="M32.3398,97.9833 L26.6048,97.9833 C25.6188,97.9833 24.8188,97.1833 24.8188,96.1983 L24.8188,85.9663 C24.8188,84.9813 25.6188,84.1813 26.6048,84.1813 L32.3398,84.1813 C33.3248,84.1813 34.1248,84.9813 34.1248,85.9663 L34.1248,96.1983 C34.1248,97.1833 33.3248,97.9833 32.3398,97.9833" id="Fill-14" fill="#FEFEFE"></path>
            <path d="M32.3398,97.9833 L26.6048,97.9833 C25.6188,97.9833 24.8188,97.1833 24.8188,96.1983 L24.8188,85.9663 C24.8188,84.9813 25.6188,84.1813 26.6048,84.1813 L32.3398,84.1813 C33.3248,84.1813 34.1248,84.9813 34.1248,85.9663 L34.1248,96.1983 C34.1248,97.1833 33.3248,97.9833 32.3398,97.9833 Z" id="Stroke-16" stroke="#192129" stroke-width="2.5" stroke-linecap="round" stroke-linejoin="round"></path>
            <path d="M75.3848,98.8397 L65.2018,98.8397 C64.2148,98.8397 63.4168,98.2597 63.4168,97.5447 L63.4168,90.1557 C63.4168,89.4407 64.2148,88.8607 65.2018,88.8607 L75.3848,88.8607 C76.3708,88.8607 77.1698,89.4407 77.1698,90.1557 L77.1698,97.5447 C77.1698,98.2597 76.3708,98.8397 75.3848,98.8397" id="Fill-18" fill="#FEFEFE"></path>
            <path d="M75.3848,98.8397 L65.2018,98.8397 C64.2148,98.8397 63.4168,98.2597 63.4168,97.5447 L63.4168,90.1557 C63.4168,89.4407 64.2148,88.8607 65.2018,88.8607 L75.3848,88.8607 C76.3708,88.8607 77.1698,89.4407 77.1698,90.1557 L77.1698,97.5447 C77.1698,98.2597 76.3708,98.8397 75.3848,98.8397 Z" id="Stroke-20" stroke="#192129" stroke-width="2.5" stroke-linecap="round" stroke-linejoin="round"></path>
            <g id="Group-24" transform="translate(5.669000, 0.000000)">
                <mask id="mask-2" fill="white">
                    <use xlink:href="#path-1"></use>
                </mask>
                <g id="Clip-23"></g>
                <path d="M5.5,-0.0001 C8.538,-0.0001 11,2.4619 11,5.4999 C11,8.5379 8.538,10.9999 5.5,10.9999 C2.463,10.9999 0,8.5379 0,5.4999 C0,2.4619 2.463,-0.0001 5.5,-0.0001 M5.5,2.4999 C3.844,2.4999 2.5,3.8429 2.5,5.4999 C2.5,7.1569 3.844,8.4999 5.5,8.4999 C7.157,8.4999 8.5,7.1569 8.5,5.4999 C8.5,3.8429 7.157,2.4999 5.5,2.4999" id="Fill-22" fill="#46639F" mask="url(#mask-2)"></path>
            </g>
            <path d="M129.354,30.4068 L129.359,30.5278 L129.359,33.1468 L131.979,33.1468 C132.636,33.1468 133.169,33.6798 133.169,34.3378 C133.169,34.9538 132.701,35.4608 132.101,35.5218 L131.979,35.5278 L129.359,35.5278 L129.359,38.1468 C129.359,38.8048 128.826,39.3378 128.169,39.3378 C127.553,39.3378 127.046,38.8688 126.984,38.2688 L126.979,38.1468 L126.979,35.5278 L124.359,35.5278 C123.702,35.5278 123.169,34.9948 123.169,34.3378 C123.169,33.7208 123.638,33.2148 124.238,33.1538 L124.359,33.1468 L126.979,33.1468 L126.979,30.5278 C126.979,29.8708 127.512,29.3378 128.169,29.3378 C128.785,29.3378 129.293,29.8058 129.354,30.4068 Z" id="Fill-25" fill="#46639F"></path>
            <path d="M5,23.3378 C5,24.7188 3.881,25.8378 2.499,25.8378 C1.119,25.8378 0,24.7188 0,23.3378 C0,21.9568 1.119,20.8378 2.499,20.8378 C3.881,20.8378 5,21.9568 5,23.3378" id="Fill-27" fill="#94BDE7"></path>
            <g id="Group-31" transform="translate(138.000000, 55.837800)">
                <mask id="mask-4" fill="white">
                    <use xlink:href="#path-3"></use>
                </mask>
                <g id="Clip-30"></g>
                <path d="M5,2.5 C5,3.881 3.881,5 2.499,5 C1.119,5 0,3.881 0,2.5 C0,1.119 1.119,0 2.499,0 C3.881,0 5,1.119 5,2.5" id="Fill-29" fill="#94BDE7" mask="url(#mask-4)"></path>
            </g>
            <line x1="62.5" y1="116.0809" x2="135.896" y2="116.0809" id="Stroke-32" stroke="#192129" stroke-width="2.5" stroke-linecap="round"></line>
            <g id="Fill-34-+-Stroke-36-+-Fill-37-+-Stroke-38-+-Fill-39-+-Stroke-40-+-Fill-41-+-Stroke-42-+-Fill-43-Mask" transform="translate(59.769400, 18.571200)">
                <polygon id="Fill-34" fill="#FEFEFE" points="29.1633 89.8998 69.7683 89.8998 69.7683 28.7728 29.1633 28.7728"></polygon>
                <polygon id="Stroke-36" stroke="#192129" stroke-width="2.5" stroke-linecap="round" stroke-linejoin="round" points="29.1633 89.8998 69.7683 89.8998 69.7683 28.7728 29.1633 28.7728"></polygon>
                <path d="M57.7277,65.3818 L41.2037,65.3818 C40.2177,65.3818 39.4177,64.5818 39.4177,63.5968 L39.4177,59.3158 C39.4177,58.3298 40.2177,57.5298 41.2037,57.5298 L57.7277,57.5298 C58.7127,57.5298 59.5127,58.3298 59.5127,59.3158 L59.5127,63.5968 C59.5127,64.5818 58.7127,65.3818 57.7277,65.3818" id="Fill-37" fill="#46639F"></path>
                <path d="M57.7277,65.3818 L41.2037,65.3818 C40.2177,65.3818 39.4177,64.5818 39.4177,63.5968 L39.4177,59.3158 C39.4177,58.3298 40.2177,57.5298 41.2037,57.5298 L57.7277,57.5298 C58.7127,57.5298 59.5127,58.3298 59.5127,59.3158 L59.5127,63.5968 C59.5127,64.5818 58.7127,65.3818 57.7277,65.3818 Z" id="Stroke-38" stroke="#192129" stroke-width="2.5" stroke-linecap="round" stroke-linejoin="round"></path>
                <path d="M57.7277,80.6445 L41.2037,80.6445 C40.2177,80.6445 39.4177,79.8455 39.4177,78.8595 L39.4177,74.5805 C39.4177,73.5945 40.2177,72.7945 41.2037,72.7945 L57.7277,72.7945 C58.7127,72.7945 59.5127,73.5945 59.5127,74.5805 L59.5127,78.8595 C59.5127,79.8455 58.7127,80.6445 57.7277,80.6445" id="Fill-39" fill="#46639F"></path>
                <path d="M57.7277,80.6445 L41.2037,80.6445 C40.2177,80.6445 39.4177,79.8455 39.4177,78.8595 L39.4177,74.5805 C39.4177,73.5945 40.2177,72.7945 41.2037,72.7945 L57.7277,72.7945 C58.7127,72.7945 59.5127,73.5945 59.5127,74.5805 L59.5127,78.8595 C59.5127,79.8455 58.7127,80.6445 57.7277,80.6445 Z" id="Stroke-40" stroke="#192129" stroke-width="2.5" stroke-linecap="round" stroke-linejoin="round"></path>
                <path d="M57.7277,50.1181 L41.2037,50.1181 C40.2177,50.1181 39.4177,49.3181 39.4177,48.3331 L39.4177,44.0521 C39.4177,43.0661 40.2177,42.2661 41.2037,42.2661 L57.7277,42.2661 C58.7127,42.2661 59.5127,43.0661 59.5127,44.0521 L59.5127,48.3331 C59.5127,49.3181 58.7127,50.1181 57.7277,50.1181" id="Fill-41" fill="#46639F"></path>
                <path d="M57.7277,50.1181 L41.2037,50.1181 C40.2177,50.1181 39.4177,49.3181 39.4177,48.3331 L39.4177,44.0521 C39.4177,43.0661 40.2177,42.2661 41.2037,42.2661 L57.7277,42.2661 C58.7127,42.2661 59.5127,43.0661 59.5127,44.0521 L59.5127,48.3331 C59.5127,49.3181 58.7127,50.1181 57.7277,50.1181 Z" id="Stroke-42" stroke="#192129" stroke-width="2.5" stroke-linecap="round" stroke-linejoin="round"></path>
                <path d="M12.381,0 C13.407,0 14.238,0.832 14.238,1.857 L14.238,6.809 L19.191,6.81 C20.217,6.81 21.048,7.641 21.048,8.667 L21.048,12.381 C21.048,13.407 20.217,14.238 19.191,14.238 L14.238,14.238 L14.238,19.191 C14.238,20.216 13.407,21.048 12.381,21.048 L8.667,21.048 C7.642,21.048 6.81,20.216 6.81,19.191 L6.81,14.238 L1.858,14.238 C0.832,14.238 0,13.407 0,12.381 L0,8.667 C0,7.641 0.832,6.81 1.858,6.81 L6.81,6.81 L6.81,1.857 C6.81,0.832 7.642,0 8.667,0 L12.381,0 Z" id="Fill-43" fill="#006855"></path>
            </g>
            <g id="Group-47" transform="translate(58.999700, 18.331000)">
                <mask id="mask-6" fill="white">
                    <use xlink:href="#path-5"></use>
                </mask>
                <g id="Clip-46"></g>
                <polygon id="Fill-45" fill="#006855" mask="url(#mask-6)" points="-2.325 24.383 24.913 24.383 24.913 -2.855 -2.325 -2.855"></polygon>
            </g>
            <g id="Group-60" transform="translate(58.999700, 18.331000)">
                <path d="M13.1507,0.2402 C14.1767,0.2402 15.0077,1.0722 15.0077,2.0972 L15.0077,7.0492 L19.9607,7.0502 C20.9867,7.0502 21.8177,7.8812 21.8177,8.9072 L21.8177,12.6212 C21.8177,13.6472 20.9867,14.4782 19.9607,14.4782 L15.0077,14.4782 L15.0077,19.4312 C15.0077,20.4562 14.1767,21.2882 13.1507,21.2882 L9.4367,21.2882 C8.4117,21.2882 7.5797,20.4562 7.5797,19.4312 L7.5797,14.4782 L2.6277,14.4782 C1.6017,14.4782 0.7697,13.6472 0.7697,12.6212 L0.7697,8.9072 C0.7697,7.8812 1.6017,7.0502 2.6277,7.0502 L7.5797,7.0502 L7.5797,2.0972 C7.5797,1.0722 8.4117,0.2402 9.4367,0.2402 L13.1507,0.2402 Z" id="Fill-48" fill="#FEFEFE"></path>
                <path d="M13.1507,0.2402 C14.1767,0.2402 15.0077,1.0722 15.0077,2.0972 L15.0077,7.0492 L19.9607,7.0502 C20.9867,7.0502 21.8177,7.8812 21.8177,8.9072 L21.8177,12.6212 C21.8177,13.6472 20.9867,14.4782 19.9607,14.4782 L15.0077,14.4782 L15.0077,19.4312 C15.0077,20.4562 14.1767,21.2882 13.1507,21.2882 L9.4367,21.2882 C8.4117,21.2882 7.5797,20.4562 7.5797,19.4312 L7.5797,14.4782 L2.6277,14.4782 C1.6017,14.4782 0.7697,13.6472 0.7697,12.6212 L0.7697,8.9072 C0.7697,7.8812 1.6017,7.0502 2.6277,7.0502 L7.5797,7.0502 L7.5797,2.0972 C7.5797,1.0722 8.4117,0.2402 9.4367,0.2402 L13.1507,0.2402 Z" id="Stroke-50" stroke="#21272D" stroke-width="2.5"></path>
                <path d="M16.3851,62.04 L6.2021,62.04 C5.2151,62.04 4.4171,61.46 4.4171,60.745 L4.4171,53.356 C4.4171,52.642 5.2151,52.061 6.2021,52.061 L16.3851,52.061 C17.3711,52.061 18.1701,52.642 18.1701,53.356 L18.1701,60.745 C18.1701,61.46 17.3711,62.04 16.3851,62.04" id="Fill-52" fill="#FEFEFE"></path>
                <path d="M16.3851,62.04 L6.2021,62.04 C5.2151,62.04 4.4171,61.46 4.4171,60.745 L4.4171,53.356 C4.4171,52.642 5.2151,52.061 6.2021,52.061 L16.3851,52.061 C17.3711,52.061 18.1701,52.642 18.1701,53.356 L18.1701,60.745 C18.1701,61.46 17.3711,62.04 16.3851,62.04 Z" id="Stroke-54" stroke="#192129" stroke-width="2.5" stroke-linecap="round" stroke-linejoin="round"></path>
                <path d="M16.3851,43.5722 L6.2021,43.5722 C5.2151,43.5722 4.4171,42.9912 4.4171,42.2762 L4.4171,34.8882 C4.4171,34.1732 5.2151,33.5932 6.2021,33.5932 L16.3851,33.5932 C17.3711,33.5932 18.1701,34.1732 18.1701,34.8882 L18.1701,42.2762 C18.1701,42.9912 17.3711,43.5722 16.3851,43.5722" id="Fill-56" fill="#FEFEFE"></path>
                <path d="M16.3851,43.5722 L6.2021,43.5722 C5.2151,43.5722 4.4171,42.9912 4.4171,42.2762 L4.4171,34.8882 C4.4171,34.1732 5.2151,33.5932 6.2021,33.5932 L16.3851,33.5932 C17.3711,33.5932 18.1701,34.1732 18.1701,34.8882 L18.1701,42.2762 C18.1701,42.9912 17.3711,43.5722 16.3851,43.5722 Z" id="Stroke-58" stroke="#192129" stroke-width="2.5" stroke-linecap="round" stroke-linejoin="round"></path>
            </g>
        </g>
    </g>
</svg>